<mxfile host="Electron" agent="Mozilla/5.0 (Windows NT 10.0; Win64; x64) AppleWebKit/537.36 (KHTML, like Gecko) draw.io/26.0.9 Chrome/128.0.6613.186 Electron/32.2.5 Safari/537.36" version="26.0.9" pages="2">
  <diagram id="C5RBs43oDa-KdzZeNtuy" name="Page-1">
    <mxGraphModel dx="2100" dy="1242" grid="1" gridSize="10" guides="1" tooltips="1" connect="1" arrows="1" fold="1" page="1" pageScale="1" pageWidth="827" pageHeight="1169" math="0" shadow="0">
      <root>
        <mxCell id="WIyWlLk6GJQsqaUBKTNV-0" />
        <mxCell id="WIyWlLk6GJQsqaUBKTNV-1" parent="WIyWlLk6GJQsqaUBKTNV-0" />
        <mxCell id="WIyWlLk6GJQsqaUBKTNV-2" value="" style="rounded=0;html=1;jettySize=auto;orthogonalLoop=1;fontSize=11;endArrow=block;endFill=0;endSize=8;strokeWidth=1;shadow=0;labelBackgroundColor=none;edgeStyle=orthogonalEdgeStyle;" parent="WIyWlLk6GJQsqaUBKTNV-1" edge="1">
          <mxGeometry relative="1" as="geometry">
            <mxPoint x="245" y="160" as="sourcePoint" />
            <mxPoint x="245" y="170" as="targetPoint" />
          </mxGeometry>
        </mxCell>
        <mxCell id="RInjZ02PP6oDg6OvWx2F-0" value="Start" style="strokeWidth=2;html=1;shape=mxgraph.flowchart.terminator;whiteSpace=wrap;" vertex="1" parent="WIyWlLk6GJQsqaUBKTNV-1">
          <mxGeometry x="215" y="20" width="100" height="60" as="geometry" />
        </mxCell>
        <mxCell id="RInjZ02PP6oDg6OvWx2F-3" value="Identifikasi tujuan dashboard" style="html=1;strokeWidth=2;shape=manualInput;whiteSpace=wrap;rounded=1;size=26;arcSize=11;" vertex="1" parent="WIyWlLk6GJQsqaUBKTNV-1">
          <mxGeometry x="215" y="110" width="100" height="90" as="geometry" />
        </mxCell>
        <mxCell id="RInjZ02PP6oDg6OvWx2F-6" value="Apakah&amp;nbsp;&lt;div&gt;dashboard untuk pemantauan&amp;nbsp;&lt;/div&gt;&lt;div&gt;performa&amp;nbsp;&lt;/div&gt;&lt;div&gt;bisnis?&lt;/div&gt;" style="strokeWidth=2;html=1;shape=mxgraph.flowchart.decision;whiteSpace=wrap;" vertex="1" parent="WIyWlLk6GJQsqaUBKTNV-1">
          <mxGeometry x="200" y="240" width="130" height="130" as="geometry" />
        </mxCell>
        <mxCell id="RInjZ02PP6oDg6OvWx2F-10" value="" style="endArrow=classic;html=1;rounded=0;" edge="1" parent="WIyWlLk6GJQsqaUBKTNV-1">
          <mxGeometry width="50" height="50" relative="1" as="geometry">
            <mxPoint x="264.5" y="370" as="sourcePoint" />
            <mxPoint x="264.5" y="410" as="targetPoint" />
          </mxGeometry>
        </mxCell>
        <mxCell id="RInjZ02PP6oDg6OvWx2F-12" value="Apakah&amp;nbsp;&lt;div&gt;dashboard untuk analisis tren&amp;nbsp;&lt;/div&gt;&lt;div&gt;penjualan?&lt;/div&gt;" style="strokeWidth=2;html=1;shape=mxgraph.flowchart.decision;whiteSpace=wrap;" vertex="1" parent="WIyWlLk6GJQsqaUBKTNV-1">
          <mxGeometry x="200" y="410" width="130" height="130" as="geometry" />
        </mxCell>
        <mxCell id="RInjZ02PP6oDg6OvWx2F-13" value="" style="endArrow=classic;html=1;rounded=0;" edge="1" parent="WIyWlLk6GJQsqaUBKTNV-1">
          <mxGeometry width="50" height="50" relative="1" as="geometry">
            <mxPoint x="264.5" y="540" as="sourcePoint" />
            <mxPoint x="264.5" y="580" as="targetPoint" />
          </mxGeometry>
        </mxCell>
        <mxCell id="RInjZ02PP6oDg6OvWx2F-14" value="Apakah&amp;nbsp;&lt;div&gt;dashboard untuk laporan&amp;nbsp;&lt;/div&gt;&lt;div&gt;eksekutif?&lt;/div&gt;" style="strokeWidth=2;html=1;shape=mxgraph.flowchart.decision;whiteSpace=wrap;" vertex="1" parent="WIyWlLk6GJQsqaUBKTNV-1">
          <mxGeometry x="200" y="580" width="130" height="130" as="geometry" />
        </mxCell>
        <mxCell id="RInjZ02PP6oDg6OvWx2F-15" value="" style="endArrow=classic;html=1;rounded=0;" edge="1" parent="WIyWlLk6GJQsqaUBKTNV-1">
          <mxGeometry width="50" height="50" relative="1" as="geometry">
            <mxPoint x="264.5" y="710" as="sourcePoint" />
            <mxPoint x="264.5" y="750" as="targetPoint" />
          </mxGeometry>
        </mxCell>
        <mxCell id="RInjZ02PP6oDg6OvWx2F-16" value="Kumpulkan&amp;nbsp;&lt;div&gt;data dari&amp;nbsp;&lt;span style=&quot;background-color: transparent; color: light-dark(rgb(0, 0, 0), rgb(255, 255, 255));&quot;&gt;sumber&amp;nbsp;&lt;/span&gt;&lt;/div&gt;&lt;div&gt;&lt;span style=&quot;background-color: transparent; color: light-dark(rgb(0, 0, 0), rgb(255, 255, 255));&quot;&gt;(Excel, CSV,&amp;nbsp;&lt;/span&gt;&lt;/div&gt;&lt;div&gt;&lt;span style=&quot;background-color: transparent; color: light-dark(rgb(0, 0, 0), rgb(255, 255, 255));&quot;&gt;Database, API,&amp;nbsp;&lt;/span&gt;&lt;/div&gt;&lt;div&gt;&lt;span style=&quot;background-color: transparent; color: light-dark(rgb(0, 0, 0), rgb(255, 255, 255));&quot;&gt;dll.)&lt;/span&gt;&lt;/div&gt;" style="shape=parallelogram;html=1;strokeWidth=2;perimeter=parallelogramPerimeter;whiteSpace=wrap;rounded=1;arcSize=12;size=0.23;" vertex="1" parent="WIyWlLk6GJQsqaUBKTNV-1">
          <mxGeometry x="190" y="750" width="150" height="80" as="geometry" />
        </mxCell>
        <mxCell id="RInjZ02PP6oDg6OvWx2F-17" value="" style="endArrow=classic;html=1;rounded=0;" edge="1" parent="WIyWlLk6GJQsqaUBKTNV-1">
          <mxGeometry width="50" height="50" relative="1" as="geometry">
            <mxPoint x="264.5" y="830" as="sourcePoint" />
            <mxPoint x="264.5" y="870" as="targetPoint" />
          </mxGeometry>
        </mxCell>
        <mxCell id="RInjZ02PP6oDg6OvWx2F-18" value="Apakah format&amp;nbsp;&lt;div&gt;data sudah sesuai kebutuhan?&lt;br&gt;&lt;/div&gt;" style="strokeWidth=2;html=1;shape=mxgraph.flowchart.decision;whiteSpace=wrap;" vertex="1" parent="WIyWlLk6GJQsqaUBKTNV-1">
          <mxGeometry x="200" y="870" width="130" height="130" as="geometry" />
        </mxCell>
        <mxCell id="RInjZ02PP6oDg6OvWx2F-19" value="Lakukan pembersihan data" style="whiteSpace=wrap;html=1;strokeWidth=2;" vertex="1" parent="WIyWlLk6GJQsqaUBKTNV-1">
          <mxGeometry x="35" y="905" width="120" height="60" as="geometry" />
        </mxCell>
        <mxCell id="RInjZ02PP6oDg6OvWx2F-21" value="No" style="text;html=1;align=center;verticalAlign=middle;whiteSpace=wrap;rounded=0;" vertex="1" parent="WIyWlLk6GJQsqaUBKTNV-1">
          <mxGeometry x="155" y="935" width="60" height="30" as="geometry" />
        </mxCell>
        <mxCell id="RInjZ02PP6oDg6OvWx2F-22" value="" style="endArrow=classic;html=1;rounded=0;entryX=1;entryY=0.5;entryDx=0;entryDy=0;exitX=0;exitY=0.5;exitDx=0;exitDy=0;exitPerimeter=0;" edge="1" parent="WIyWlLk6GJQsqaUBKTNV-1" source="RInjZ02PP6oDg6OvWx2F-18" target="RInjZ02PP6oDg6OvWx2F-19">
          <mxGeometry width="50" height="50" relative="1" as="geometry">
            <mxPoint x="309" y="930" as="sourcePoint" />
            <mxPoint x="309" y="970" as="targetPoint" />
          </mxGeometry>
        </mxCell>
        <mxCell id="RInjZ02PP6oDg6OvWx2F-23" value="Bersihkan data dengan:&lt;div&gt;&lt;li&gt;&lt;strong&gt;Menghapus duplikasi&lt;/strong&gt;&lt;/li&gt;&lt;li&gt;&lt;strong&gt;Menangani missing values&lt;/strong&gt;&lt;/li&gt;&lt;li&gt;&lt;strong&gt;Melakukan normalisasi data&lt;/strong&gt;&lt;/li&gt;&lt;li&gt;&lt;strong&gt;Mengubah tipe data jika diperlukan&lt;/strong&gt;&lt;/li&gt;&lt;/div&gt;" style="whiteSpace=wrap;html=1;strokeWidth=2;" vertex="1" parent="WIyWlLk6GJQsqaUBKTNV-1">
          <mxGeometry x="445" y="120" width="220" height="80" as="geometry" />
        </mxCell>
        <mxCell id="RInjZ02PP6oDg6OvWx2F-24" value="" style="endArrow=classic;html=1;rounded=0;" edge="1" parent="WIyWlLk6GJQsqaUBKTNV-1">
          <mxGeometry width="50" height="50" relative="1" as="geometry">
            <mxPoint x="264.5" y="1000" as="sourcePoint" />
            <mxPoint x="264.5" y="1040" as="targetPoint" />
          </mxGeometry>
        </mxCell>
        <mxCell id="RInjZ02PP6oDg6OvWx2F-26" value="" style="endArrow=classic;html=1;rounded=0;" edge="1" parent="WIyWlLk6GJQsqaUBKTNV-1">
          <mxGeometry width="50" height="50" relative="1" as="geometry">
            <mxPoint x="264.5" y="80" as="sourcePoint" />
            <mxPoint x="264.5" y="120" as="targetPoint" />
          </mxGeometry>
        </mxCell>
        <mxCell id="RInjZ02PP6oDg6OvWx2F-27" value="" style="endArrow=classic;html=1;rounded=0;" edge="1" parent="WIyWlLk6GJQsqaUBKTNV-1">
          <mxGeometry width="50" height="50" relative="1" as="geometry">
            <mxPoint x="265" y="200" as="sourcePoint" />
            <mxPoint x="264.5" y="240" as="targetPoint" />
          </mxGeometry>
        </mxCell>
        <mxCell id="RInjZ02PP6oDg6OvWx2F-28" value="" style="verticalLabelPosition=bottom;verticalAlign=top;html=1;shape=mxgraph.flowchart.on-page_reference;" vertex="1" parent="WIyWlLk6GJQsqaUBKTNV-1">
          <mxGeometry x="235" y="1040" width="60" height="60" as="geometry" />
        </mxCell>
        <mxCell id="RInjZ02PP6oDg6OvWx2F-29" value="1" style="text;html=1;align=center;verticalAlign=middle;whiteSpace=wrap;rounded=0;" vertex="1" parent="WIyWlLk6GJQsqaUBKTNV-1">
          <mxGeometry x="235" y="1055" width="60" height="30" as="geometry" />
        </mxCell>
        <mxCell id="RInjZ02PP6oDg6OvWx2F-30" value="" style="verticalLabelPosition=bottom;verticalAlign=top;html=1;shape=mxgraph.flowchart.on-page_reference;" vertex="1" parent="WIyWlLk6GJQsqaUBKTNV-1">
          <mxGeometry x="525" y="20" width="60" height="60" as="geometry" />
        </mxCell>
        <mxCell id="RInjZ02PP6oDg6OvWx2F-31" value="1" style="text;html=1;align=center;verticalAlign=middle;whiteSpace=wrap;rounded=0;" vertex="1" parent="WIyWlLk6GJQsqaUBKTNV-1">
          <mxGeometry x="525" y="35" width="60" height="30" as="geometry" />
        </mxCell>
        <mxCell id="RInjZ02PP6oDg6OvWx2F-32" value="" style="endArrow=classic;html=1;rounded=0;" edge="1" parent="WIyWlLk6GJQsqaUBKTNV-1">
          <mxGeometry width="50" height="50" relative="1" as="geometry">
            <mxPoint x="554.5" y="80" as="sourcePoint" />
            <mxPoint x="554.5" y="120" as="targetPoint" />
          </mxGeometry>
        </mxCell>
        <mxCell id="RInjZ02PP6oDg6OvWx2F-33" value="" style="endArrow=classic;html=1;rounded=0;" edge="1" parent="WIyWlLk6GJQsqaUBKTNV-1">
          <mxGeometry width="50" height="50" relative="1" as="geometry">
            <mxPoint x="554.5" y="200" as="sourcePoint" />
            <mxPoint x="554.5" y="240" as="targetPoint" />
          </mxGeometry>
        </mxCell>
        <mxCell id="RInjZ02PP6oDg6OvWx2F-34" value="Pilih jenis&amp;nbsp;&lt;div&gt;visualisasi yang&amp;nbsp;&lt;/div&gt;&lt;div&gt;sesuai dengan&amp;nbsp;&lt;/div&gt;&lt;div&gt;data&lt;br&gt;&lt;/div&gt;" style="strokeWidth=2;html=1;shape=mxgraph.flowchart.decision;whiteSpace=wrap;" vertex="1" parent="WIyWlLk6GJQsqaUBKTNV-1">
          <mxGeometry x="490" y="240" width="130" height="130" as="geometry" />
        </mxCell>
        <mxCell id="RInjZ02PP6oDg6OvWx2F-35" value="" style="endArrow=classic;html=1;rounded=0;" edge="1" parent="WIyWlLk6GJQsqaUBKTNV-1">
          <mxGeometry width="50" height="50" relative="1" as="geometry">
            <mxPoint x="554.5" y="370" as="sourcePoint" />
            <mxPoint x="554.5" y="410" as="targetPoint" />
          </mxGeometry>
        </mxCell>
        <mxCell id="RInjZ02PP6oDg6OvWx2F-36" value="&lt;div&gt;Apakah data&amp;nbsp;&lt;/div&gt;&lt;div&gt;bersifat numerik?&lt;br&gt;&lt;/div&gt;" style="strokeWidth=2;html=1;shape=mxgraph.flowchart.decision;whiteSpace=wrap;" vertex="1" parent="WIyWlLk6GJQsqaUBKTNV-1">
          <mxGeometry x="490" y="410" width="130" height="130" as="geometry" />
        </mxCell>
        <mxCell id="RInjZ02PP6oDg6OvWx2F-37" value="" style="endArrow=classic;html=1;rounded=0;entryX=0;entryY=0.5;entryDx=0;entryDy=0;exitX=0;exitY=0.5;exitDx=0;exitDy=0;exitPerimeter=0;" edge="1" parent="WIyWlLk6GJQsqaUBKTNV-1" target="RInjZ02PP6oDg6OvWx2F-38">
          <mxGeometry width="50" height="50" relative="1" as="geometry">
            <mxPoint x="620" y="474.94" as="sourcePoint" />
            <mxPoint x="663.04" y="474.49999999999994" as="targetPoint" />
          </mxGeometry>
        </mxCell>
        <mxCell id="RInjZ02PP6oDg6OvWx2F-38" value="Gunakan Line Chart atau Bar Chart" style="whiteSpace=wrap;html=1;strokeWidth=2;" vertex="1" parent="WIyWlLk6GJQsqaUBKTNV-1">
          <mxGeometry x="675" y="445" width="120" height="60" as="geometry" />
        </mxCell>
        <mxCell id="RInjZ02PP6oDg6OvWx2F-39" value="Yes" style="text;html=1;align=center;verticalAlign=middle;whiteSpace=wrap;rounded=0;" vertex="1" parent="WIyWlLk6GJQsqaUBKTNV-1">
          <mxGeometry x="615" y="470" width="60" height="30" as="geometry" />
        </mxCell>
        <mxCell id="RInjZ02PP6oDg6OvWx2F-40" value="" style="endArrow=classic;html=1;rounded=0;" edge="1" parent="WIyWlLk6GJQsqaUBKTNV-1">
          <mxGeometry width="50" height="50" relative="1" as="geometry">
            <mxPoint x="554.5" y="540" as="sourcePoint" />
            <mxPoint x="554.5" y="580" as="targetPoint" />
          </mxGeometry>
        </mxCell>
        <mxCell id="RInjZ02PP6oDg6OvWx2F-41" value="&lt;div&gt;Apakah data&amp;nbsp;&lt;/div&gt;&lt;div&gt;bersifat kategori?&lt;br&gt;&lt;/div&gt;" style="strokeWidth=2;html=1;shape=mxgraph.flowchart.decision;whiteSpace=wrap;" vertex="1" parent="WIyWlLk6GJQsqaUBKTNV-1">
          <mxGeometry x="490" y="580" width="130" height="130" as="geometry" />
        </mxCell>
        <mxCell id="RInjZ02PP6oDg6OvWx2F-42" value="" style="endArrow=classic;html=1;rounded=0;entryX=0;entryY=0.5;entryDx=0;entryDy=0;exitX=0;exitY=0.5;exitDx=0;exitDy=0;exitPerimeter=0;" edge="1" parent="WIyWlLk6GJQsqaUBKTNV-1">
          <mxGeometry width="50" height="50" relative="1" as="geometry">
            <mxPoint x="620" y="644.94" as="sourcePoint" />
            <mxPoint x="675" y="645" as="targetPoint" />
          </mxGeometry>
        </mxCell>
        <mxCell id="RInjZ02PP6oDg6OvWx2F-43" value="Yes" style="text;html=1;align=center;verticalAlign=middle;whiteSpace=wrap;rounded=0;" vertex="1" parent="WIyWlLk6GJQsqaUBKTNV-1">
          <mxGeometry x="615" y="640" width="60" height="30" as="geometry" />
        </mxCell>
        <mxCell id="RInjZ02PP6oDg6OvWx2F-44" value="Gunakan Pie Chart atau Treemap" style="whiteSpace=wrap;html=1;strokeWidth=2;" vertex="1" parent="WIyWlLk6GJQsqaUBKTNV-1">
          <mxGeometry x="675" y="615" width="120" height="60" as="geometry" />
        </mxCell>
        <mxCell id="RInjZ02PP6oDg6OvWx2F-45" value="" style="endArrow=classic;html=1;rounded=0;" edge="1" parent="WIyWlLk6GJQsqaUBKTNV-1">
          <mxGeometry width="50" height="50" relative="1" as="geometry">
            <mxPoint x="554.5" y="710" as="sourcePoint" />
            <mxPoint x="554.5" y="750" as="targetPoint" />
          </mxGeometry>
        </mxCell>
        <mxCell id="RInjZ02PP6oDg6OvWx2F-46" value="&lt;div&gt;Apakah data&amp;nbsp;&lt;/div&gt;&lt;div&gt;bersifat spasial?&lt;br&gt;&lt;/div&gt;" style="strokeWidth=2;html=1;shape=mxgraph.flowchart.decision;whiteSpace=wrap;" vertex="1" parent="WIyWlLk6GJQsqaUBKTNV-1">
          <mxGeometry x="490" y="750" width="130" height="130" as="geometry" />
        </mxCell>
        <mxCell id="RInjZ02PP6oDg6OvWx2F-47" value="" style="endArrow=classic;html=1;rounded=0;entryX=0;entryY=0.5;entryDx=0;entryDy=0;exitX=0;exitY=0.5;exitDx=0;exitDy=0;exitPerimeter=0;" edge="1" parent="WIyWlLk6GJQsqaUBKTNV-1">
          <mxGeometry width="50" height="50" relative="1" as="geometry">
            <mxPoint x="620" y="814.94" as="sourcePoint" />
            <mxPoint x="675" y="815" as="targetPoint" />
          </mxGeometry>
        </mxCell>
        <mxCell id="RInjZ02PP6oDg6OvWx2F-48" value="Yes" style="text;html=1;align=center;verticalAlign=middle;whiteSpace=wrap;rounded=0;" vertex="1" parent="WIyWlLk6GJQsqaUBKTNV-1">
          <mxGeometry x="615" y="810" width="60" height="30" as="geometry" />
        </mxCell>
        <mxCell id="RInjZ02PP6oDg6OvWx2F-49" value="Gunakan Map Chart" style="whiteSpace=wrap;html=1;strokeWidth=2;" vertex="1" parent="WIyWlLk6GJQsqaUBKTNV-1">
          <mxGeometry x="675" y="785" width="120" height="60" as="geometry" />
        </mxCell>
        <mxCell id="RInjZ02PP6oDg6OvWx2F-50" value="" style="endArrow=classic;html=1;rounded=0;" edge="1" parent="WIyWlLk6GJQsqaUBKTNV-1">
          <mxGeometry width="50" height="50" relative="1" as="geometry">
            <mxPoint x="554.5" y="880" as="sourcePoint" />
            <mxPoint x="554.5" y="920" as="targetPoint" />
          </mxGeometry>
        </mxCell>
        <mxCell id="RInjZ02PP6oDg6OvWx2F-51" value="&lt;div&gt;Apakah ada&amp;nbsp;&lt;/div&gt;&lt;div&gt;korelasi antar&amp;nbsp;&lt;/div&gt;&lt;div&gt;variabel?&lt;br&gt;&lt;/div&gt;" style="strokeWidth=2;html=1;shape=mxgraph.flowchart.decision;whiteSpace=wrap;" vertex="1" parent="WIyWlLk6GJQsqaUBKTNV-1">
          <mxGeometry x="490" y="920" width="130" height="130" as="geometry" />
        </mxCell>
        <mxCell id="RInjZ02PP6oDg6OvWx2F-52" value="" style="endArrow=classic;html=1;rounded=0;entryX=0;entryY=0.5;entryDx=0;entryDy=0;exitX=0;exitY=0.5;exitDx=0;exitDy=0;exitPerimeter=0;" edge="1" parent="WIyWlLk6GJQsqaUBKTNV-1">
          <mxGeometry width="50" height="50" relative="1" as="geometry">
            <mxPoint x="620" y="984.94" as="sourcePoint" />
            <mxPoint x="675" y="985" as="targetPoint" />
          </mxGeometry>
        </mxCell>
        <mxCell id="RInjZ02PP6oDg6OvWx2F-53" value="Yes" style="text;html=1;align=center;verticalAlign=middle;whiteSpace=wrap;rounded=0;" vertex="1" parent="WIyWlLk6GJQsqaUBKTNV-1">
          <mxGeometry x="615" y="980" width="60" height="30" as="geometry" />
        </mxCell>
        <mxCell id="RInjZ02PP6oDg6OvWx2F-54" value="Gunakan Scatter Plot" style="whiteSpace=wrap;html=1;strokeWidth=2;" vertex="1" parent="WIyWlLk6GJQsqaUBKTNV-1">
          <mxGeometry x="675" y="955" width="120" height="60" as="geometry" />
        </mxCell>
        <mxCell id="RInjZ02PP6oDg6OvWx2F-55" value="" style="endArrow=classic;html=1;rounded=0;" edge="1" parent="WIyWlLk6GJQsqaUBKTNV-1">
          <mxGeometry width="50" height="50" relative="1" as="geometry">
            <mxPoint x="554.5" y="1050" as="sourcePoint" />
            <mxPoint x="554.5" y="1090" as="targetPoint" />
          </mxGeometry>
        </mxCell>
        <mxCell id="RInjZ02PP6oDg6OvWx2F-58" value="" style="verticalLabelPosition=bottom;verticalAlign=top;html=1;shape=offPageConnector;rounded=0;size=0.5;" vertex="1" parent="WIyWlLk6GJQsqaUBKTNV-1">
          <mxGeometry x="525" y="1090" width="60" height="60" as="geometry" />
        </mxCell>
        <mxCell id="RInjZ02PP6oDg6OvWx2F-59" value="2" style="text;html=1;align=center;verticalAlign=middle;whiteSpace=wrap;rounded=0;" vertex="1" parent="WIyWlLk6GJQsqaUBKTNV-1">
          <mxGeometry x="525" y="1100" width="60" height="30" as="geometry" />
        </mxCell>
      </root>
    </mxGraphModel>
  </diagram>
  <diagram id="Pwo_C_BlEFnXSmOIOokd" name="Page-2">
    <mxGraphModel dx="2100" dy="1242" grid="1" gridSize="10" guides="1" tooltips="1" connect="1" arrows="1" fold="1" page="1" pageScale="1" pageWidth="827" pageHeight="1169" math="0" shadow="0">
      <root>
        <mxCell id="0" />
        <mxCell id="1" parent="0" />
        <mxCell id="ZoTq62ZkFmlOF7i8mnrp-1" value="Buat worksheet dengan berbagai grafik berikut:&lt;br&gt;&lt;div&gt;&lt;li&gt;&lt;b&gt;Bar Chart&lt;/b&gt;&lt;/li&gt;&lt;li&gt;&lt;b&gt;Line Chart&lt;/b&gt;&lt;/li&gt;&lt;li&gt;&lt;b&gt;Dual-Axis Chart&lt;/b&gt;&lt;/li&gt;&lt;li&gt;&lt;b&gt;Heatmap&lt;/b&gt;&lt;/li&gt;&lt;li&gt;&lt;b&gt;Treemap&lt;/b&gt;&lt;/li&gt;&lt;li&gt;&lt;b&gt;Bubble Chart&lt;/b&gt;&lt;/li&gt;&lt;li&gt;&lt;b&gt;Box Plot&lt;/b&gt;&lt;/li&gt;&lt;li&gt;&lt;b&gt;Histogram&lt;/b&gt;&lt;/li&gt;&lt;li&gt;&lt;b&gt;Scatter Plot dengan Trend Line&lt;/b&gt;&lt;/li&gt;&lt;li&gt;&lt;b&gt;Profit Filled Map&lt;/b&gt;&lt;/li&gt;&lt;/div&gt;" style="whiteSpace=wrap;html=1;strokeWidth=2;" vertex="1" parent="1">
          <mxGeometry x="159" y="140" width="220" height="180" as="geometry" />
        </mxCell>
        <mxCell id="fJq9udssnXeO8WEE-ZIy-1" value="" style="verticalLabelPosition=bottom;verticalAlign=top;html=1;shape=offPageConnector;rounded=0;size=0.5;" vertex="1" parent="1">
          <mxGeometry x="239" y="40" width="60" height="60" as="geometry" />
        </mxCell>
        <mxCell id="fJq9udssnXeO8WEE-ZIy-2" value="2" style="text;html=1;align=center;verticalAlign=middle;whiteSpace=wrap;rounded=0;" vertex="1" parent="1">
          <mxGeometry x="239" y="50" width="60" height="30" as="geometry" />
        </mxCell>
        <mxCell id="f3ghkOkv1gKFY6krv8Hu-1" value="" style="endArrow=classic;html=1;rounded=0;" edge="1" parent="1">
          <mxGeometry width="50" height="50" relative="1" as="geometry">
            <mxPoint x="268.5" y="100" as="sourcePoint" />
            <mxPoint x="268.5" y="140" as="targetPoint" />
          </mxGeometry>
        </mxCell>
        <mxCell id="1XJAKrDmDAuRjT1MaQQY-1" value="" style="verticalLabelPosition=bottom;verticalAlign=top;html=1;shape=process;whiteSpace=wrap;rounded=1;size=0.14;arcSize=6;" vertex="1" parent="1">
          <mxGeometry x="139" y="360" width="260" height="100" as="geometry" />
        </mxCell>
        <mxCell id="1XJAKrDmDAuRjT1MaQQY-2" value="" style="endArrow=classic;html=1;rounded=0;" edge="1" parent="1">
          <mxGeometry width="50" height="50" relative="1" as="geometry">
            <mxPoint x="268.5" y="320" as="sourcePoint" />
            <mxPoint x="268.5" y="360" as="targetPoint" />
          </mxGeometry>
        </mxCell>
        <mxCell id="1XJAKrDmDAuRjT1MaQQY-5" value="Tambahkan KPI Cards dengan:&amp;nbsp;&lt;ul&gt;&lt;li&gt;&lt;b&gt;Total Sales&lt;/b&gt;&lt;/li&gt;&lt;li&gt;&lt;b&gt;Total Profit&lt;/b&gt;&lt;/li&gt;&lt;li&gt;&lt;b&gt;Jumlah Order&lt;/b&gt;&lt;/li&gt;&lt;li&gt;&lt;b&gt;Customer Segmentation&lt;/b&gt;&lt;/li&gt;&lt;/ul&gt;" style="text;html=1;align=center;verticalAlign=middle;whiteSpace=wrap;rounded=0;" vertex="1" parent="1">
          <mxGeometry x="159" y="360" width="220" height="110" as="geometry" />
        </mxCell>
        <mxCell id="1XJAKrDmDAuRjT1MaQQY-6" value="Susun dashboard dengan mempertimbangkan:&lt;div&gt;&lt;li&gt;&lt;b&gt;Layout Grid atau Floating&lt;/b&gt;&lt;/li&gt;&lt;li&gt;&lt;b&gt;Urutan KPI → Tren → Distribusi → Detail&lt;/b&gt;&lt;/li&gt;&lt;li&gt;&lt;b&gt;Ukuran dan proporsi elemen&lt;/b&gt;&lt;/li&gt;&lt;/div&gt;" style="whiteSpace=wrap;html=1;strokeWidth=2;" vertex="1" parent="1">
          <mxGeometry x="159" y="500" width="220" height="90" as="geometry" />
        </mxCell>
        <mxCell id="1XJAKrDmDAuRjT1MaQQY-7" value="" style="endArrow=classic;html=1;rounded=0;" edge="1" parent="1">
          <mxGeometry width="50" height="50" relative="1" as="geometry">
            <mxPoint x="268.5" y="460" as="sourcePoint" />
            <mxPoint x="268.5" y="500" as="targetPoint" />
          </mxGeometry>
        </mxCell>
        <mxCell id="1XJAKrDmDAuRjT1MaQQY-8" value="" style="endArrow=classic;html=1;rounded=0;" edge="1" parent="1">
          <mxGeometry width="50" height="50" relative="1" as="geometry">
            <mxPoint x="268.5" y="590" as="sourcePoint" />
            <mxPoint x="268.5" y="630" as="targetPoint" />
          </mxGeometry>
        </mxCell>
        <mxCell id="1XJAKrDmDAuRjT1MaQQY-9" value="Tambahkan interaktivitas pada dashboard:&lt;div&gt;&lt;li&gt;&lt;b&gt;Filter Dropdown untuk Region, Kategori, Produk&lt;/b&gt;&lt;/li&gt;&lt;li&gt;&lt;b&gt;Actions (Klik untuk Filter)&lt;/b&gt;&lt;/li&gt;&lt;li&gt;&lt;b&gt;Hover Tooltip Interaktif&lt;/b&gt;&lt;/li&gt;&lt;li&gt;&lt;b&gt;Parameter untuk Dynamic Control&lt;/b&gt;&lt;/li&gt;&lt;/div&gt;" style="whiteSpace=wrap;html=1;strokeWidth=2;" vertex="1" parent="1">
          <mxGeometry x="159" y="630" width="220" height="110" as="geometry" />
        </mxCell>
        <mxCell id="1XJAKrDmDAuRjT1MaQQY-10" value="" style="endArrow=classic;html=1;rounded=0;" edge="1" parent="1">
          <mxGeometry width="50" height="50" relative="1" as="geometry">
            <mxPoint x="268.5" y="740" as="sourcePoint" />
            <mxPoint x="268.5" y="780" as="targetPoint" />
          </mxGeometry>
        </mxCell>
        <mxCell id="1XJAKrDmDAuRjT1MaQQY-11" value="Periksa konsistensi warna dan desain:&lt;div&gt;&lt;li&gt;&lt;b&gt;Apakah warna sesuai standar brand?&lt;/b&gt;&lt;/li&gt;&lt;li&gt;&lt;b&gt;Apakah ukuran font mudah dibaca?&lt;/b&gt;&lt;/li&gt;&lt;li&gt;&lt;b&gt;Apakah semua elemen proporsional?&lt;/b&gt;&lt;/li&gt;&lt;/div&gt;" style="whiteSpace=wrap;html=1;strokeWidth=2;" vertex="1" parent="1">
          <mxGeometry x="159" y="780" width="220" height="110" as="geometry" />
        </mxCell>
        <mxCell id="1XJAKrDmDAuRjT1MaQQY-12" value="" style="endArrow=classic;html=1;rounded=0;" edge="1" parent="1">
          <mxGeometry width="50" height="50" relative="1" as="geometry">
            <mxPoint x="268.5" y="890" as="sourcePoint" />
            <mxPoint x="268.5" y="930" as="targetPoint" />
          </mxGeometry>
        </mxCell>
        <mxCell id="qPytaYX17akkoOtXKbPM-1" value="&lt;div&gt;Evaluasi&amp;nbsp;&lt;/div&gt;&lt;div&gt;performa&amp;nbsp;&lt;/div&gt;&lt;div&gt;&lt;span style=&quot;background-color: transparent; color: light-dark(rgb(0, 0, 0), rgb(255, 255, 255));&quot;&gt;dashboard:&lt;/span&gt;&lt;/div&gt;&lt;div&gt;&lt;span style=&quot;background-color: transparent; color: light-dark(rgb(0, 0, 0), rgb(255, 255, 255));&quot;&gt;Apakah load time kurang&amp;nbsp;&lt;/span&gt;&lt;/div&gt;&lt;div&gt;&lt;span style=&quot;background-color: transparent; color: light-dark(rgb(0, 0, 0), rgb(255, 255, 255));&quot;&gt;dari 5 detik?&lt;/span&gt;&lt;/div&gt;&lt;div&gt;&lt;span style=&quot;background-color: transparent; color: light-dark(rgb(0, 0, 0), rgb(255, 255, 255));&quot;&gt;Apakah data selalu&amp;nbsp;&lt;/span&gt;&lt;/div&gt;&lt;div&gt;&lt;span style=&quot;background-color: transparent; color: light-dark(rgb(0, 0, 0), rgb(255, 255, 255));&quot;&gt;update?&lt;/span&gt;&lt;/div&gt;&lt;div&gt;&lt;span style=&quot;background-color: transparent; color: light-dark(rgb(0, 0, 0), rgb(255, 255, 255));&quot;&gt;Apakah filter&amp;nbsp;&lt;/span&gt;&lt;/div&gt;&lt;div&gt;&lt;span style=&quot;background-color: transparent; color: light-dark(rgb(0, 0, 0), rgb(255, 255, 255));&quot;&gt;berjalan&amp;nbsp;&lt;/span&gt;&lt;span style=&quot;background-color: transparent; color: light-dark(rgb(0, 0, 0), rgb(255, 255, 255));&quot;&gt;dengan&amp;nbsp;&lt;/span&gt;&lt;/div&gt;&lt;div&gt;&lt;span style=&quot;background-color: transparent; color: light-dark(rgb(0, 0, 0), rgb(255, 255, 255));&quot;&gt;benar?&lt;/span&gt;&lt;/div&gt;" style="strokeWidth=2;html=1;shape=mxgraph.flowchart.decision;whiteSpace=wrap;" vertex="1" parent="1">
          <mxGeometry x="169" y="930" width="200" height="200" as="geometry" />
        </mxCell>
        <mxCell id="wdROvP0wHaBcoVq2MgMz-1" value="" style="verticalLabelPosition=bottom;verticalAlign=top;html=1;shape=mxgraph.flowchart.on-page_reference;" vertex="1" parent="1">
          <mxGeometry x="69" y="1000" width="60" height="60" as="geometry" />
        </mxCell>
        <mxCell id="wdROvP0wHaBcoVq2MgMz-2" value="3" style="text;html=1;align=center;verticalAlign=middle;whiteSpace=wrap;rounded=0;" vertex="1" parent="1">
          <mxGeometry x="69" y="1015" width="60" height="30" as="geometry" />
        </mxCell>
        <mxCell id="HjXStnZ6kNy-x712G6bk-1" value="" style="endArrow=classic;html=1;rounded=0;" edge="1" parent="1">
          <mxGeometry width="50" height="50" relative="1" as="geometry">
            <mxPoint x="169" y="1029.5" as="sourcePoint" />
            <mxPoint x="129" y="1030" as="targetPoint" />
          </mxGeometry>
        </mxCell>
        <mxCell id="HjXStnZ6kNy-x712G6bk-3" value="" style="verticalLabelPosition=bottom;verticalAlign=top;html=1;shape=mxgraph.flowchart.on-page_reference;" vertex="1" parent="1">
          <mxGeometry x="609" y="295" width="60" height="60" as="geometry" />
        </mxCell>
        <mxCell id="HjXStnZ6kNy-x712G6bk-4" value="3" style="text;html=1;align=center;verticalAlign=middle;whiteSpace=wrap;rounded=0;" vertex="1" parent="1">
          <mxGeometry x="609" y="310" width="60" height="30" as="geometry" />
        </mxCell>
        <mxCell id="HjXStnZ6kNy-x712G6bk-5" value="" style="endArrow=classic;html=1;rounded=0;" edge="1" parent="1">
          <mxGeometry width="50" height="50" relative="1" as="geometry">
            <mxPoint x="638.5" y="355" as="sourcePoint" />
            <mxPoint x="638.5" y="395" as="targetPoint" />
          </mxGeometry>
        </mxCell>
        <mxCell id="HjXStnZ6kNy-x712G6bk-6" value="Jika performa belum optimal, lakukan perbaikan." style="whiteSpace=wrap;html=1;strokeWidth=2;" vertex="1" parent="1">
          <mxGeometry x="529" y="395" width="220" height="50" as="geometry" />
        </mxCell>
        <mxCell id="HjXStnZ6kNy-x712G6bk-7" value="" style="endArrow=classic;html=1;rounded=0;" edge="1" parent="1">
          <mxGeometry width="50" height="50" relative="1" as="geometry">
            <mxPoint x="638.5" y="445" as="sourcePoint" />
            <mxPoint x="638.5" y="485" as="targetPoint" />
          </mxGeometry>
        </mxCell>
        <mxCell id="HjXStnZ6kNy-x712G6bk-8" value="Simpan file Tableau dengan format yang sesuai:&lt;div&gt;&lt;li&gt;&lt;strong&gt;TWB&lt;/strong&gt; (tanpa data) jika sumber data tetap.&lt;/li&gt;&lt;li&gt;&lt;strong&gt;TWBX&lt;/strong&gt; (dengan data) jika ingin berbagi dengan orang lain.&lt;/li&gt;&lt;/div&gt;" style="whiteSpace=wrap;html=1;strokeWidth=2;" vertex="1" parent="1">
          <mxGeometry x="529" y="485" width="220" height="100" as="geometry" />
        </mxCell>
        <mxCell id="HjXStnZ6kNy-x712G6bk-9" value="&lt;strong&gt;Publikasi dashboard&amp;nbsp;&lt;/strong&gt;&lt;div&gt;&lt;strong&gt;ke:&lt;/strong&gt;&amp;nbsp;&lt;ul&gt;&lt;li&gt;Tableau Public&lt;/li&gt;&lt;li&gt;Tableau Server&lt;/li&gt;&lt;li&gt;Tableau Online&lt;/li&gt;&lt;li&gt;PDF/PNG Export&lt;/li&gt;&lt;/ul&gt;&lt;/div&gt;" style="shape=parallelogram;html=1;strokeWidth=2;perimeter=parallelogramPerimeter;whiteSpace=wrap;rounded=1;arcSize=12;size=0.23;" vertex="1" parent="1">
          <mxGeometry x="522.3299999999999" y="625" width="233.34" height="140" as="geometry" />
        </mxCell>
        <mxCell id="HjXStnZ6kNy-x712G6bk-10" value="" style="endArrow=classic;html=1;rounded=0;" edge="1" parent="1">
          <mxGeometry width="50" height="50" relative="1" as="geometry">
            <mxPoint x="638.5" y="585" as="sourcePoint" />
            <mxPoint x="638.5" y="625" as="targetPoint" />
          </mxGeometry>
        </mxCell>
        <mxCell id="HjXStnZ6kNy-x712G6bk-11" value="End" style="strokeWidth=2;html=1;shape=mxgraph.flowchart.terminator;whiteSpace=wrap;" vertex="1" parent="1">
          <mxGeometry x="579" y="805" width="100" height="60" as="geometry" />
        </mxCell>
        <mxCell id="HjXStnZ6kNy-x712G6bk-12" value="" style="endArrow=classic;html=1;rounded=0;" edge="1" parent="1">
          <mxGeometry width="50" height="50" relative="1" as="geometry">
            <mxPoint x="628.5" y="765" as="sourcePoint" />
            <mxPoint x="628.5" y="805" as="targetPoint" />
          </mxGeometry>
        </mxCell>
      </root>
    </mxGraphModel>
  </diagram>
</mxfile>
